<svg width="18" height="18" viewBox="0 0 18 18" fill="none" xmlns="http://www.w3.org/2000/svg">
<path d="M14.8334 2.33341H13.1667V1.50008C13.1667 1.27907 13.0789 1.06711 12.9226 0.910826C12.7663 0.754545 12.5544 0.666748 12.3334 0.666748C12.1123 0.666748 11.9004 0.754545 11.7441 0.910826C11.5878 1.06711 11.5 1.27907 11.5 1.50008V2.33341H6.50002V1.50008C6.50002 1.27907 6.41222 1.06711 6.25594 0.910826C6.09966 0.754545 5.8877 0.666748 5.66669 0.666748C5.44567 0.666748 5.23371 0.754545 5.07743 0.910826C4.92115 1.06711 4.83335 1.27907 4.83335 1.50008V2.33341H3.16669C2.50365 2.33341 1.86776 2.59681 1.39892 3.06565C0.930079 3.53449 0.666687 4.17037 0.666687 4.83342V14.8334C0.666687 15.4965 0.930079 16.1323 1.39892 16.6012C1.86776 17.07 2.50365 17.3334 3.16669 17.3334H14.8334C15.4964 17.3334 16.1323 17.07 16.6011 16.6012C17.07 16.1323 17.3334 15.4965 17.3334 14.8334V4.83342C17.3334 4.17037 17.07 3.53449 16.6011 3.06565C16.1323 2.59681 15.4964 2.33341 14.8334 2.33341ZM15.6667 14.8334C15.6667 15.0544 15.5789 15.2664 15.4226 15.4227C15.2663 15.579 15.0544 15.6667 14.8334 15.6667H3.16669C2.94567 15.6667 2.73371 15.579 2.57743 15.4227C2.42115 15.2664 2.33335 15.0544 2.33335 14.8334V9.00008H15.6667V14.8334ZM15.6667 7.33342H2.33335V4.83342C2.33335 4.6124 2.42115 4.40044 2.57743 4.24416C2.73371 4.08788 2.94567 4.00008 3.16669 4.00008H4.83335V4.83342C4.83335 5.05443 4.92115 5.26639 5.07743 5.42267C5.23371 5.57895 5.44567 5.66675 5.66669 5.66675C5.8877 5.66675 6.09966 5.57895 6.25594 5.42267C6.41222 5.26639 6.50002 5.05443 6.50002 4.83342V4.00008H11.5V4.83342C11.5 5.05443 11.5878 5.26639 11.7441 5.42267C11.9004 5.57895 12.1123 5.66675 12.3334 5.66675C12.5544 5.66675 12.7663 5.57895 12.9226 5.42267C13.0789 5.26639 13.1667 5.05443 13.1667 4.83342V4.00008H14.8334C15.0544 4.00008 15.2663 4.08788 15.4226 4.24416C15.5789 4.40044 15.6667 4.6124 15.6667 4.83342V7.33342Z" fill="#858585"/>
</svg>
